<mxfile host="app.diagrams.net" modified="2022-08-29T02:51:55.174Z" agent="5.0 (Windows NT 10.0; Win64; x64) AppleWebKit/537.36 (KHTML, like Gecko) Chrome/104.0.0.0 Safari/537.36" etag="ehTBn5t539tfrS9K-Wok" version="20.2.5" type="github">
  <diagram id="C5RBs43oDa-KdzZeNtuy" name="Page-1">
    <mxGraphModel dx="2249" dy="762" grid="1" gridSize="10" guides="1" tooltips="1" connect="1" arrows="1" fold="1" page="1" pageScale="1" pageWidth="827" pageHeight="1169" math="0" shadow="0">
      <root>
        <mxCell id="WIyWlLk6GJQsqaUBKTNV-0" />
        <mxCell id="WIyWlLk6GJQsqaUBKTNV-1" parent="WIyWlLk6GJQsqaUBKTNV-0" />
        <mxCell id="OrFd3vQUqXrxjJSe6fAK-4" value="nginx" style="rounded=1;whiteSpace=wrap;html=1;" vertex="1" parent="WIyWlLk6GJQsqaUBKTNV-1">
          <mxGeometry x="-150" y="170" width="160" height="40" as="geometry" />
        </mxCell>
        <mxCell id="OrFd3vQUqXrxjJSe6fAK-6" value="serviceA" style="rounded=1;whiteSpace=wrap;html=1;" vertex="1" parent="WIyWlLk6GJQsqaUBKTNV-1">
          <mxGeometry x="-310" y="280" width="90" height="40" as="geometry" />
        </mxCell>
        <mxCell id="OrFd3vQUqXrxjJSe6fAK-7" value="serviceC" style="rounded=1;whiteSpace=wrap;html=1;" vertex="1" parent="WIyWlLk6GJQsqaUBKTNV-1">
          <mxGeometry x="-80" y="280" width="90" height="40" as="geometry" />
        </mxCell>
        <mxCell id="OrFd3vQUqXrxjJSe6fAK-8" value="serviceB" style="rounded=1;whiteSpace=wrap;html=1;" vertex="1" parent="WIyWlLk6GJQsqaUBKTNV-1">
          <mxGeometry x="-200" y="280" width="90" height="40" as="geometry" />
        </mxCell>
        <mxCell id="OrFd3vQUqXrxjJSe6fAK-9" value="html" style="rounded=1;whiteSpace=wrap;html=1;" vertex="1" parent="WIyWlLk6GJQsqaUBKTNV-1">
          <mxGeometry x="40" y="280" width="90" height="40" as="geometry" />
        </mxCell>
        <mxCell id="OrFd3vQUqXrxjJSe6fAK-10" value="" style="endArrow=classic;html=1;rounded=0;" edge="1" parent="WIyWlLk6GJQsqaUBKTNV-1">
          <mxGeometry width="50" height="50" relative="1" as="geometry">
            <mxPoint x="-70.5" y="120" as="sourcePoint" />
            <mxPoint x="-70.5" y="170" as="targetPoint" />
          </mxGeometry>
        </mxCell>
        <mxCell id="OrFd3vQUqXrxjJSe6fAK-11" value="" style="endArrow=classic;html=1;rounded=0;exitX=0.5;exitY=1;exitDx=0;exitDy=0;" edge="1" parent="WIyWlLk6GJQsqaUBKTNV-1" source="OrFd3vQUqXrxjJSe6fAK-4">
          <mxGeometry width="50" height="50" relative="1" as="geometry">
            <mxPoint x="-265.5" y="230" as="sourcePoint" />
            <mxPoint x="-265.5" y="280" as="targetPoint" />
          </mxGeometry>
        </mxCell>
        <mxCell id="OrFd3vQUqXrxjJSe6fAK-12" value="" style="endArrow=classic;html=1;rounded=0;" edge="1" parent="WIyWlLk6GJQsqaUBKTNV-1">
          <mxGeometry width="50" height="50" relative="1" as="geometry">
            <mxPoint x="-70" y="210" as="sourcePoint" />
            <mxPoint x="-155.5" y="280" as="targetPoint" />
          </mxGeometry>
        </mxCell>
        <mxCell id="OrFd3vQUqXrxjJSe6fAK-13" value="" style="endArrow=classic;html=1;rounded=0;" edge="1" parent="WIyWlLk6GJQsqaUBKTNV-1">
          <mxGeometry width="50" height="50" relative="1" as="geometry">
            <mxPoint x="-70" y="210" as="sourcePoint" />
            <mxPoint x="-40" y="280" as="targetPoint" />
          </mxGeometry>
        </mxCell>
        <mxCell id="OrFd3vQUqXrxjJSe6fAK-14" value="" style="endArrow=classic;html=1;rounded=0;exitX=0.5;exitY=1;exitDx=0;exitDy=0;" edge="1" parent="WIyWlLk6GJQsqaUBKTNV-1" source="OrFd3vQUqXrxjJSe6fAK-4">
          <mxGeometry width="50" height="50" relative="1" as="geometry">
            <mxPoint x="165.5" y="210" as="sourcePoint" />
            <mxPoint x="80" y="280" as="targetPoint" />
          </mxGeometry>
        </mxCell>
        <mxCell id="OrFd3vQUqXrxjJSe6fAK-16" value="nginx" style="rounded=1;whiteSpace=wrap;html=1;" vertex="1" parent="WIyWlLk6GJQsqaUBKTNV-1">
          <mxGeometry x="495.5" y="380" width="160" height="40" as="geometry" />
        </mxCell>
        <mxCell id="OrFd3vQUqXrxjJSe6fAK-35" value="" style="edgeStyle=orthogonalEdgeStyle;rounded=0;orthogonalLoop=1;jettySize=auto;html=1;" edge="1" parent="WIyWlLk6GJQsqaUBKTNV-1" source="OrFd3vQUqXrxjJSe6fAK-34" target="OrFd3vQUqXrxjJSe6fAK-17">
          <mxGeometry relative="1" as="geometry" />
        </mxCell>
        <mxCell id="OrFd3vQUqXrxjJSe6fAK-37" value="" style="edgeStyle=orthogonalEdgeStyle;rounded=0;orthogonalLoop=1;jettySize=auto;html=1;" edge="1" parent="WIyWlLk6GJQsqaUBKTNV-1" source="OrFd3vQUqXrxjJSe6fAK-17" target="OrFd3vQUqXrxjJSe6fAK-36">
          <mxGeometry relative="1" as="geometry" />
        </mxCell>
        <mxCell id="OrFd3vQUqXrxjJSe6fAK-17" value="APISIX:80/443" style="rounded=1;whiteSpace=wrap;html=1;" vertex="1" parent="WIyWlLk6GJQsqaUBKTNV-1">
          <mxGeometry x="350" y="490" width="90" height="40" as="geometry" />
        </mxCell>
        <mxCell id="OrFd3vQUqXrxjJSe6fAK-19" value="html" style="rounded=1;whiteSpace=wrap;html=1;" vertex="1" parent="WIyWlLk6GJQsqaUBKTNV-1">
          <mxGeometry x="685.5" y="490" width="90" height="40" as="geometry" />
        </mxCell>
        <mxCell id="OrFd3vQUqXrxjJSe6fAK-20" value="" style="endArrow=classic;html=1;rounded=0;" edge="1" parent="WIyWlLk6GJQsqaUBKTNV-1">
          <mxGeometry width="50" height="50" relative="1" as="geometry">
            <mxPoint x="575" y="330" as="sourcePoint" />
            <mxPoint x="575" y="380" as="targetPoint" />
          </mxGeometry>
        </mxCell>
        <mxCell id="OrFd3vQUqXrxjJSe6fAK-23" value="" style="endArrow=classic;html=1;rounded=0;entryX=0.5;entryY=0;entryDx=0;entryDy=0;" edge="1" parent="WIyWlLk6GJQsqaUBKTNV-1" target="OrFd3vQUqXrxjJSe6fAK-17">
          <mxGeometry width="50" height="50" relative="1" as="geometry">
            <mxPoint x="575.5" y="420" as="sourcePoint" />
            <mxPoint x="605.5" y="490" as="targetPoint" />
          </mxGeometry>
        </mxCell>
        <mxCell id="OrFd3vQUqXrxjJSe6fAK-24" value="" style="endArrow=classic;html=1;rounded=0;exitX=0.5;exitY=1;exitDx=0;exitDy=0;" edge="1" parent="WIyWlLk6GJQsqaUBKTNV-1" source="OrFd3vQUqXrxjJSe6fAK-16">
          <mxGeometry width="50" height="50" relative="1" as="geometry">
            <mxPoint x="811" y="420" as="sourcePoint" />
            <mxPoint x="725.5" y="490" as="targetPoint" />
          </mxGeometry>
        </mxCell>
        <mxCell id="OrFd3vQUqXrxjJSe6fAK-25" value="" style="endArrow=classic;html=1;rounded=0;" edge="1" parent="WIyWlLk6GJQsqaUBKTNV-1">
          <mxGeometry width="50" height="50" relative="1" as="geometry">
            <mxPoint x="250" y="510" as="sourcePoint" />
            <mxPoint x="350" y="510" as="targetPoint" />
          </mxGeometry>
        </mxCell>
        <mxCell id="OrFd3vQUqXrxjJSe6fAK-26" value="serviceC" style="rounded=1;whiteSpace=wrap;html=1;" vertex="1" parent="WIyWlLk6GJQsqaUBKTNV-1">
          <mxGeometry x="480" y="600" width="90" height="40" as="geometry" />
        </mxCell>
        <mxCell id="OrFd3vQUqXrxjJSe6fAK-27" value="serviceB" style="rounded=1;whiteSpace=wrap;html=1;" vertex="1" parent="WIyWlLk6GJQsqaUBKTNV-1">
          <mxGeometry x="330" y="600" width="90" height="40" as="geometry" />
        </mxCell>
        <mxCell id="OrFd3vQUqXrxjJSe6fAK-29" value="" style="endArrow=classic;html=1;rounded=0;exitX=0.5;exitY=1;exitDx=0;exitDy=0;entryX=0.5;entryY=0;entryDx=0;entryDy=0;" edge="1" parent="WIyWlLk6GJQsqaUBKTNV-1" target="OrFd3vQUqXrxjJSe6fAK-33">
          <mxGeometry width="50" height="50" relative="1" as="geometry">
            <mxPoint x="392.75" y="530" as="sourcePoint" />
            <mxPoint x="197.25" y="600" as="targetPoint" />
          </mxGeometry>
        </mxCell>
        <mxCell id="OrFd3vQUqXrxjJSe6fAK-30" value="" style="endArrow=classic;html=1;rounded=0;entryX=0.5;entryY=0;entryDx=0;entryDy=0;" edge="1" parent="WIyWlLk6GJQsqaUBKTNV-1" target="OrFd3vQUqXrxjJSe6fAK-27">
          <mxGeometry width="50" height="50" relative="1" as="geometry">
            <mxPoint x="392.75" y="530" as="sourcePoint" />
            <mxPoint x="307.25" y="600" as="targetPoint" />
          </mxGeometry>
        </mxCell>
        <mxCell id="OrFd3vQUqXrxjJSe6fAK-31" value="" style="endArrow=classic;html=1;rounded=0;exitX=0.5;exitY=1;exitDx=0;exitDy=0;" edge="1" parent="WIyWlLk6GJQsqaUBKTNV-1" source="OrFd3vQUqXrxjJSe6fAK-17">
          <mxGeometry width="50" height="50" relative="1" as="geometry">
            <mxPoint x="495.5" y="530" as="sourcePoint" />
            <mxPoint x="525.5" y="600" as="targetPoint" />
          </mxGeometry>
        </mxCell>
        <mxCell id="OrFd3vQUqXrxjJSe6fAK-33" value="serviceA" style="rounded=1;whiteSpace=wrap;html=1;" vertex="1" parent="WIyWlLk6GJQsqaUBKTNV-1">
          <mxGeometry x="180" y="600" width="90" height="40" as="geometry" />
        </mxCell>
        <mxCell id="OrFd3vQUqXrxjJSe6fAK-34" value="dashboard" style="ellipse;whiteSpace=wrap;html=1;rounded=1;" vertex="1" parent="WIyWlLk6GJQsqaUBKTNV-1">
          <mxGeometry x="335" y="370" width="120" height="60" as="geometry" />
        </mxCell>
        <mxCell id="OrFd3vQUqXrxjJSe6fAK-36" value="etcd集群" style="whiteSpace=wrap;html=1;rounded=1;" vertex="1" parent="WIyWlLk6GJQsqaUBKTNV-1">
          <mxGeometry x="505" y="480" width="125" height="60" as="geometry" />
        </mxCell>
      </root>
    </mxGraphModel>
  </diagram>
</mxfile>
